<mxfile host="app.diagrams.net" modified="2022-05-18T01:44:58.899Z" agent="5.0 (Windows NT 10.0; Win64; x64) AppleWebKit/537.36 (KHTML, like Gecko) Chrome/101.0.4951.64 Safari/537.36 Edg/101.0.1210.47" etag="CpJvFGq4mDr1air1LXa2" version="17.4.6" type="github">
  <diagram id="OqNRYARwi0OO5pbd3fXT" name="Page-1">
    <mxGraphModel dx="1422" dy="914" grid="0" gridSize="10" guides="1" tooltips="1" connect="1" arrows="1" fold="1" page="1" pageScale="1" pageWidth="827" pageHeight="1169" background="none" math="0" shadow="1">
      <root>
        <mxCell id="0" />
        <mxCell id="1" parent="0" />
        <mxCell id="uOsbefwq3MWyIZOblxYZ-1" value="图书馆党委" style="rounded=0;whiteSpace=wrap;html=1;fillColor=#ffe6cc;strokeColor=#d79b00;fontStyle=1;fontSize=22;" vertex="1" parent="1">
          <mxGeometry x="294" y="200" width="230" height="50" as="geometry" />
        </mxCell>
        <mxCell id="uOsbefwq3MWyIZOblxYZ-4" value="" style="endArrow=none;html=1;rounded=0;fontSize=22;entryX=0.5;entryY=1;entryDx=0;entryDy=0;strokeWidth=4;fillColor=#ffe6cc;strokeColor=#d79b00;" edge="1" parent="1" target="uOsbefwq3MWyIZOblxYZ-1">
          <mxGeometry width="50" height="50" relative="1" as="geometry">
            <mxPoint x="409" y="300" as="sourcePoint" />
            <mxPoint x="444" y="240" as="targetPoint" />
          </mxGeometry>
        </mxCell>
        <mxCell id="uOsbefwq3MWyIZOblxYZ-7" value="图书馆第一支部" style="rounded=0;whiteSpace=wrap;html=1;fillColor=#ffe6cc;strokeColor=#d79b00;fontStyle=1;fontSize=22;" vertex="1" parent="1">
          <mxGeometry x="241" y="350" width="30" height="200" as="geometry" />
        </mxCell>
        <mxCell id="uOsbefwq3MWyIZOblxYZ-8" value="图书馆第二支部" style="rounded=0;whiteSpace=wrap;html=1;fillColor=#ffe6cc;strokeColor=#d79b00;fontStyle=1;fontSize=22;" vertex="1" parent="1">
          <mxGeometry x="320" y="350" width="30" height="200" as="geometry" />
        </mxCell>
        <mxCell id="uOsbefwq3MWyIZOblxYZ-9" value="图书馆第三支部" style="rounded=0;whiteSpace=wrap;html=1;fillColor=#ffe6cc;strokeColor=#d79b00;fontStyle=1;fontSize=22;" vertex="1" parent="1">
          <mxGeometry x="393.5" y="350" width="30" height="200" as="geometry" />
        </mxCell>
        <mxCell id="uOsbefwq3MWyIZOblxYZ-10" value="图书馆第四支部" style="rounded=0;whiteSpace=wrap;html=1;fillColor=#ffe6cc;strokeColor=#d79b00;fontStyle=1;fontSize=22;" vertex="1" parent="1">
          <mxGeometry x="481" y="350" width="30" height="200" as="geometry" />
        </mxCell>
        <mxCell id="uOsbefwq3MWyIZOblxYZ-11" value="图书馆退休支部" style="rounded=0;whiteSpace=wrap;html=1;fillColor=#ffe6cc;strokeColor=#d79b00;fontStyle=1;fontSize=22;" vertex="1" parent="1">
          <mxGeometry x="563" y="350" width="30" height="200" as="geometry" />
        </mxCell>
        <mxCell id="uOsbefwq3MWyIZOblxYZ-12" value="" style="endArrow=none;html=1;rounded=0;fontSize=22;strokeWidth=4;fillColor=#ffe6cc;strokeColor=#d79b00;" edge="1" parent="1">
          <mxGeometry width="50" height="50" relative="1" as="geometry">
            <mxPoint x="254" y="300" as="sourcePoint" />
            <mxPoint x="580" y="300" as="targetPoint" />
          </mxGeometry>
        </mxCell>
        <mxCell id="uOsbefwq3MWyIZOblxYZ-14" value="" style="endArrow=classic;html=1;rounded=0;fontSize=22;strokeWidth=4;entryX=0.5;entryY=0;entryDx=0;entryDy=0;fillColor=#ffe6cc;strokeColor=#d79b00;" edge="1" parent="1" target="uOsbefwq3MWyIZOblxYZ-7">
          <mxGeometry width="50" height="50" relative="1" as="geometry">
            <mxPoint x="256" y="300" as="sourcePoint" />
            <mxPoint x="180" y="310" as="targetPoint" />
          </mxGeometry>
        </mxCell>
        <mxCell id="uOsbefwq3MWyIZOblxYZ-15" value="" style="endArrow=classic;html=1;rounded=0;fontSize=22;strokeWidth=4;entryX=0.5;entryY=0;entryDx=0;entryDy=0;fillColor=#ffe6cc;strokeColor=#d79b00;" edge="1" parent="1" target="uOsbefwq3MWyIZOblxYZ-8">
          <mxGeometry width="50" height="50" relative="1" as="geometry">
            <mxPoint x="335" y="300" as="sourcePoint" />
            <mxPoint x="279" y="410" as="targetPoint" />
          </mxGeometry>
        </mxCell>
        <mxCell id="uOsbefwq3MWyIZOblxYZ-16" value="" style="endArrow=classic;html=1;rounded=0;fontSize=22;strokeWidth=4;entryX=0.5;entryY=0;entryDx=0;entryDy=0;fillColor=#ffe6cc;strokeColor=#d79b00;" edge="1" parent="1" target="uOsbefwq3MWyIZOblxYZ-9">
          <mxGeometry width="50" height="50" relative="1" as="geometry">
            <mxPoint x="409" y="300" as="sourcePoint" />
            <mxPoint x="278" y="420" as="targetPoint" />
          </mxGeometry>
        </mxCell>
        <mxCell id="uOsbefwq3MWyIZOblxYZ-17" value="" style="endArrow=classic;html=1;rounded=0;fontSize=22;strokeWidth=4;entryX=0.5;entryY=0;entryDx=0;entryDy=0;fillColor=#ffe6cc;strokeColor=#d79b00;" edge="1" parent="1" target="uOsbefwq3MWyIZOblxYZ-10">
          <mxGeometry width="50" height="50" relative="1" as="geometry">
            <mxPoint x="496" y="300" as="sourcePoint" />
            <mxPoint x="434.5" y="410" as="targetPoint" />
          </mxGeometry>
        </mxCell>
        <mxCell id="uOsbefwq3MWyIZOblxYZ-18" value="" style="endArrow=classic;html=1;rounded=0;fontSize=22;strokeWidth=4;entryX=0.5;entryY=0;entryDx=0;entryDy=0;fillColor=#ffe6cc;strokeColor=#d79b00;" edge="1" parent="1" target="uOsbefwq3MWyIZOblxYZ-11">
          <mxGeometry width="50" height="50" relative="1" as="geometry">
            <mxPoint x="578" y="300" as="sourcePoint" />
            <mxPoint x="446.5" y="420" as="targetPoint" />
          </mxGeometry>
        </mxCell>
        <mxCell id="uOsbefwq3MWyIZOblxYZ-22" value="随园校区" style="rounded=0;whiteSpace=wrap;html=1;fillColor=#ffe6cc;strokeColor=#d79b00;fontStyle=1;fontSize=22;" vertex="1" parent="1">
          <mxGeometry x="73" y="671" width="230" height="50" as="geometry" />
        </mxCell>
        <mxCell id="uOsbefwq3MWyIZOblxYZ-23" value="" style="endArrow=classic;html=1;rounded=0;fontSize=22;strokeWidth=4;entryX=0.5;entryY=0;entryDx=0;entryDy=0;fillColor=#ffe6cc;strokeColor=#d79b00;" edge="1" parent="1" source="uOsbefwq3MWyIZOblxYZ-22" target="uOsbefwq3MWyIZOblxYZ-24">
          <mxGeometry width="50" height="50" relative="1" as="geometry">
            <mxPoint x="140" y="878" as="sourcePoint" />
            <mxPoint x="188" y="764" as="targetPoint" />
          </mxGeometry>
        </mxCell>
        <mxCell id="uOsbefwq3MWyIZOblxYZ-24" value="图书馆第三支部" style="rounded=0;whiteSpace=wrap;html=1;fillColor=#ffe6cc;strokeColor=#d79b00;fontStyle=1;fontSize=22;" vertex="1" parent="1">
          <mxGeometry x="69.5" y="788" width="237" height="48" as="geometry" />
        </mxCell>
        <mxCell id="uOsbefwq3MWyIZOblxYZ-25" value="随园流通阅览部" style="rounded=0;whiteSpace=wrap;html=1;fillColor=#ffe6cc;strokeColor=#d79b00;fontStyle=1;fontSize=22;" vertex="1" parent="1">
          <mxGeometry x="77" y="933" width="30" height="200" as="geometry" />
        </mxCell>
        <mxCell id="uOsbefwq3MWyIZOblxYZ-27" value="古籍特藏部" style="rounded=0;whiteSpace=wrap;html=1;fillColor=#ffe6cc;strokeColor=#d79b00;fontStyle=1;fontSize=22;" vertex="1" parent="1">
          <mxGeometry x="279" y="933" width="30" height="200" as="geometry" />
        </mxCell>
        <mxCell id="uOsbefwq3MWyIZOblxYZ-32" value="" style="edgeStyle=elbowEdgeStyle;rounded=0;elbow=vertical;html=1;labelBackgroundColor=#ffffff;endArrow=classic;endFill=1;endSize=6;jettySize=auto;orthogonalLoop=1;strokeWidth=4;fontSize=14;exitX=0.5;exitY=1;exitDx=0;exitDy=0;entryX=0.5;entryY=0;entryDx=0;entryDy=0;fillColor=#ffe6cc;strokeColor=#d79b00;" edge="1" parent="1" source="uOsbefwq3MWyIZOblxYZ-24" target="uOsbefwq3MWyIZOblxYZ-25">
          <mxGeometry width="60" height="60" relative="1" as="geometry">
            <mxPoint x="40" y="991" as="sourcePoint" />
            <mxPoint x="100" y="931" as="targetPoint" />
          </mxGeometry>
        </mxCell>
        <mxCell id="uOsbefwq3MWyIZOblxYZ-34" value="" style="edgeStyle=elbowEdgeStyle;rounded=0;elbow=vertical;html=1;labelBackgroundColor=#ffffff;endArrow=classic;endFill=1;endSize=6;jettySize=auto;orthogonalLoop=1;strokeWidth=4;fontSize=14;exitX=0.5;exitY=1;exitDx=0;exitDy=0;entryX=0.5;entryY=0;entryDx=0;entryDy=0;fillColor=#ffe6cc;strokeColor=#d79b00;" edge="1" parent="1" source="uOsbefwq3MWyIZOblxYZ-24" target="uOsbefwq3MWyIZOblxYZ-27">
          <mxGeometry width="60" height="60" relative="1" as="geometry">
            <mxPoint x="198" y="846" as="sourcePoint" />
            <mxPoint x="110" y="941" as="targetPoint" />
          </mxGeometry>
        </mxCell>
        <mxCell id="uOsbefwq3MWyIZOblxYZ-35" value="仙林校区" style="rounded=0;whiteSpace=wrap;html=1;fillColor=#ffe6cc;strokeColor=#d79b00;fontStyle=1;fontSize=22;" vertex="1" parent="1">
          <mxGeometry x="461.75" y="671" width="230" height="50" as="geometry" />
        </mxCell>
        <mxCell id="uOsbefwq3MWyIZOblxYZ-37" value="图书馆&lt;br&gt;第一支部" style="rounded=0;whiteSpace=wrap;html=1;fillColor=#ffe6cc;strokeColor=#d79b00;fontStyle=1;fontSize=22;" vertex="1" parent="1">
          <mxGeometry x="393.5" y="788" width="115.5" height="61" as="geometry" />
        </mxCell>
        <mxCell id="uOsbefwq3MWyIZOblxYZ-40" value="" style="edgeStyle=elbowEdgeStyle;rounded=0;elbow=vertical;html=1;labelBackgroundColor=#ffffff;endArrow=classic;endFill=1;endSize=6;jettySize=auto;orthogonalLoop=1;strokeWidth=4;fontSize=14;exitX=0.5;exitY=1;exitDx=0;exitDy=0;fillColor=#ffe6cc;strokeColor=#d79b00;entryX=0.5;entryY=0;entryDx=0;entryDy=0;" edge="1" parent="1" source="uOsbefwq3MWyIZOblxYZ-37" target="uOsbefwq3MWyIZOblxYZ-42">
          <mxGeometry width="60" height="60" relative="1" as="geometry">
            <mxPoint x="428.75" y="997" as="sourcePoint" />
            <mxPoint x="395" y="927" as="targetPoint" />
          </mxGeometry>
        </mxCell>
        <mxCell id="uOsbefwq3MWyIZOblxYZ-41" value="" style="edgeStyle=elbowEdgeStyle;rounded=0;elbow=vertical;html=1;labelBackgroundColor=#ffffff;endArrow=classic;endFill=1;endSize=6;jettySize=auto;orthogonalLoop=1;strokeWidth=4;fontSize=14;exitX=0.5;exitY=1;exitDx=0;exitDy=0;entryX=0.5;entryY=0;entryDx=0;entryDy=0;fillColor=#ffe6cc;strokeColor=#d79b00;" edge="1" parent="1" source="uOsbefwq3MWyIZOblxYZ-37" target="uOsbefwq3MWyIZOblxYZ-43">
          <mxGeometry width="60" height="60" relative="1" as="geometry">
            <mxPoint x="586.75" y="852" as="sourcePoint" />
            <mxPoint x="682.75" y="912" as="targetPoint" />
            <Array as="points">
              <mxPoint x="461" y="894" />
            </Array>
          </mxGeometry>
        </mxCell>
        <mxCell id="uOsbefwq3MWyIZOblxYZ-42" value="敬文流通阅览部" style="rounded=0;whiteSpace=wrap;html=1;fillColor=#ffe6cc;strokeColor=#d79b00;fontStyle=1;fontSize=22;verticalAlign=top;" vertex="1" parent="1">
          <mxGeometry x="395" y="933" width="30" height="200" as="geometry" />
        </mxCell>
        <mxCell id="uOsbefwq3MWyIZOblxYZ-43" value="图书馆办公室" style="rounded=0;whiteSpace=wrap;html=1;fillColor=#ffe6cc;strokeColor=#d79b00;fontStyle=1;fontSize=22;verticalAlign=top;" vertex="1" parent="1">
          <mxGeometry x="435.75" y="933" width="30" height="200" as="geometry" />
        </mxCell>
        <mxCell id="uOsbefwq3MWyIZOblxYZ-44" value="文化建设与推广部" style="rounded=0;whiteSpace=wrap;html=1;fillColor=#ffe6cc;strokeColor=#d79b00;fontStyle=1;fontSize=20;verticalAlign=top;" vertex="1" parent="1">
          <mxGeometry x="478" y="933" width="30" height="200" as="geometry" />
        </mxCell>
        <mxCell id="uOsbefwq3MWyIZOblxYZ-46" value="" style="edgeStyle=elbowEdgeStyle;rounded=0;elbow=vertical;html=1;labelBackgroundColor=#ffffff;endArrow=classic;endFill=1;endSize=6;jettySize=auto;orthogonalLoop=1;strokeWidth=4;fontSize=14;exitX=0.5;exitY=1;exitDx=0;exitDy=0;entryX=0.5;entryY=0;entryDx=0;entryDy=0;fillColor=#ffe6cc;strokeColor=#d79b00;" edge="1" parent="1" source="uOsbefwq3MWyIZOblxYZ-37" target="uOsbefwq3MWyIZOblxYZ-44">
          <mxGeometry width="60" height="60" relative="1" as="geometry">
            <mxPoint x="461.25" y="859" as="sourcePoint" />
            <mxPoint x="460.75" y="943" as="targetPoint" />
            <Array as="points">
              <mxPoint x="470" y="891" />
            </Array>
          </mxGeometry>
        </mxCell>
        <mxCell id="uOsbefwq3MWyIZOblxYZ-47" value="" style="edgeStyle=elbowEdgeStyle;rounded=0;elbow=vertical;html=1;labelBackgroundColor=#ffffff;endArrow=classic;endFill=1;endSize=6;jettySize=auto;orthogonalLoop=1;strokeWidth=4;fontSize=14;exitX=0.532;exitY=1;exitDx=0;exitDy=0;entryX=0.5;entryY=0;entryDx=0;entryDy=0;fillColor=#ffe6cc;strokeColor=#d79b00;exitPerimeter=0;" edge="1" parent="1" source="uOsbefwq3MWyIZOblxYZ-35" target="uOsbefwq3MWyIZOblxYZ-37">
          <mxGeometry width="60" height="60" relative="1" as="geometry">
            <mxPoint x="461.25" y="840" as="sourcePoint" />
            <mxPoint x="503" y="924" as="targetPoint" />
            <Array as="points">
              <mxPoint x="514" y="746" />
            </Array>
          </mxGeometry>
        </mxCell>
        <mxCell id="uOsbefwq3MWyIZOblxYZ-49" value="图书馆&lt;br&gt;第二支部" style="rounded=0;whiteSpace=wrap;html=1;fillColor=#ffe6cc;strokeColor=#d79b00;fontStyle=1;fontSize=22;" vertex="1" parent="1">
          <mxGeometry x="527" y="788" width="115.5" height="61" as="geometry" />
        </mxCell>
        <mxCell id="uOsbefwq3MWyIZOblxYZ-50" value="" style="edgeStyle=elbowEdgeStyle;rounded=0;elbow=vertical;html=1;labelBackgroundColor=#ffffff;endArrow=classic;endFill=1;endSize=6;jettySize=auto;orthogonalLoop=1;strokeWidth=4;fontSize=14;exitX=0.5;exitY=1;exitDx=0;exitDy=0;fillColor=#ffe6cc;strokeColor=#d79b00;entryX=0.5;entryY=0;entryDx=0;entryDy=0;" edge="1" parent="1" source="uOsbefwq3MWyIZOblxYZ-49" target="uOsbefwq3MWyIZOblxYZ-52">
          <mxGeometry width="60" height="60" relative="1" as="geometry">
            <mxPoint x="562.25" y="997" as="sourcePoint" />
            <mxPoint x="528.5" y="927" as="targetPoint" />
          </mxGeometry>
        </mxCell>
        <mxCell id="uOsbefwq3MWyIZOblxYZ-51" value="" style="edgeStyle=elbowEdgeStyle;rounded=0;elbow=vertical;html=1;labelBackgroundColor=#ffffff;endArrow=classic;endFill=1;endSize=6;jettySize=auto;orthogonalLoop=1;strokeWidth=4;fontSize=14;exitX=0.5;exitY=1;exitDx=0;exitDy=0;entryX=0.5;entryY=0;entryDx=0;entryDy=0;fillColor=#ffe6cc;strokeColor=#d79b00;" edge="1" parent="1" source="uOsbefwq3MWyIZOblxYZ-49" target="uOsbefwq3MWyIZOblxYZ-53">
          <mxGeometry width="60" height="60" relative="1" as="geometry">
            <mxPoint x="720.25" y="852" as="sourcePoint" />
            <mxPoint x="816.25" y="912" as="targetPoint" />
            <Array as="points">
              <mxPoint x="594.5" y="894" />
            </Array>
          </mxGeometry>
        </mxCell>
        <mxCell id="uOsbefwq3MWyIZOblxYZ-52" value="系统技术部" style="rounded=0;whiteSpace=wrap;html=1;fillColor=#ffe6cc;strokeColor=#d79b00;fontStyle=1;fontSize=22;verticalAlign=top;" vertex="1" parent="1">
          <mxGeometry x="528.5" y="933" width="30" height="200" as="geometry" />
        </mxCell>
        <mxCell id="uOsbefwq3MWyIZOblxYZ-53" value="信息咨询与服务中心" style="rounded=0;whiteSpace=wrap;html=1;fillColor=#ffe6cc;strokeColor=#d79b00;fontStyle=1;fontSize=18;verticalAlign=top;" vertex="1" parent="1">
          <mxGeometry x="569.25" y="933" width="30" height="200" as="geometry" />
        </mxCell>
        <mxCell id="uOsbefwq3MWyIZOblxYZ-54" value="专业馆管理部" style="rounded=0;whiteSpace=wrap;html=1;fillColor=#ffe6cc;strokeColor=#d79b00;fontStyle=1;fontSize=20;verticalAlign=top;" vertex="1" parent="1">
          <mxGeometry x="611.5" y="933" width="30" height="200" as="geometry" />
        </mxCell>
        <mxCell id="uOsbefwq3MWyIZOblxYZ-55" value="" style="edgeStyle=elbowEdgeStyle;rounded=0;elbow=vertical;html=1;labelBackgroundColor=#ffffff;endArrow=classic;endFill=1;endSize=6;jettySize=auto;orthogonalLoop=1;strokeWidth=4;fontSize=14;exitX=0.5;exitY=1;exitDx=0;exitDy=0;entryX=0.5;entryY=0;entryDx=0;entryDy=0;fillColor=#ffe6cc;strokeColor=#d79b00;" edge="1" parent="1" source="uOsbefwq3MWyIZOblxYZ-49" target="uOsbefwq3MWyIZOblxYZ-54">
          <mxGeometry width="60" height="60" relative="1" as="geometry">
            <mxPoint x="594.75" y="859" as="sourcePoint" />
            <mxPoint x="594.25" y="943" as="targetPoint" />
            <Array as="points">
              <mxPoint x="603.5" y="891" />
            </Array>
          </mxGeometry>
        </mxCell>
        <mxCell id="uOsbefwq3MWyIZOblxYZ-57" value="图书馆&lt;br&gt;第四支部" style="rounded=0;whiteSpace=wrap;html=1;fillColor=#ffe6cc;strokeColor=#d79b00;fontStyle=1;fontSize=22;" vertex="1" parent="1">
          <mxGeometry x="660" y="786" width="115.5" height="61" as="geometry" />
        </mxCell>
        <mxCell id="uOsbefwq3MWyIZOblxYZ-58" value="" style="edgeStyle=elbowEdgeStyle;rounded=0;elbow=vertical;html=1;labelBackgroundColor=#ffffff;endArrow=classic;endFill=1;endSize=6;jettySize=auto;orthogonalLoop=1;strokeWidth=4;fontSize=14;exitX=0.5;exitY=1;exitDx=0;exitDy=0;fillColor=#ffe6cc;strokeColor=#d79b00;entryX=0.5;entryY=0;entryDx=0;entryDy=0;" edge="1" parent="1" source="uOsbefwq3MWyIZOblxYZ-57" target="uOsbefwq3MWyIZOblxYZ-60">
          <mxGeometry width="60" height="60" relative="1" as="geometry">
            <mxPoint x="695.25" y="995" as="sourcePoint" />
            <mxPoint x="661.5" y="925" as="targetPoint" />
          </mxGeometry>
        </mxCell>
        <mxCell id="uOsbefwq3MWyIZOblxYZ-60" value="文献资源建设部" style="rounded=0;whiteSpace=wrap;html=1;fillColor=#ffe6cc;strokeColor=#d79b00;fontStyle=1;fontSize=22;verticalAlign=top;" vertex="1" parent="1">
          <mxGeometry x="661.5" y="931" width="30" height="200" as="geometry" />
        </mxCell>
        <mxCell id="uOsbefwq3MWyIZOblxYZ-62" value="新北区图书馆" style="rounded=0;whiteSpace=wrap;html=1;fillColor=#ffe6cc;strokeColor=#d79b00;fontStyle=1;fontSize=20;verticalAlign=top;" vertex="1" parent="1">
          <mxGeometry x="744.5" y="931" width="30" height="200" as="geometry" />
        </mxCell>
        <mxCell id="uOsbefwq3MWyIZOblxYZ-63" value="" style="edgeStyle=elbowEdgeStyle;rounded=0;elbow=vertical;html=1;labelBackgroundColor=#ffffff;endArrow=classic;endFill=1;endSize=6;jettySize=auto;orthogonalLoop=1;strokeWidth=4;fontSize=14;exitX=0.5;exitY=1;exitDx=0;exitDy=0;entryX=0.5;entryY=0;entryDx=0;entryDy=0;fillColor=#ffe6cc;strokeColor=#d79b00;" edge="1" parent="1" source="uOsbefwq3MWyIZOblxYZ-57" target="uOsbefwq3MWyIZOblxYZ-62">
          <mxGeometry width="60" height="60" relative="1" as="geometry">
            <mxPoint x="727.75" y="857" as="sourcePoint" />
            <mxPoint x="727.25" y="941" as="targetPoint" />
            <Array as="points">
              <mxPoint x="736.5" y="889" />
            </Array>
          </mxGeometry>
        </mxCell>
        <mxCell id="uOsbefwq3MWyIZOblxYZ-64" value="" style="edgeStyle=elbowEdgeStyle;rounded=0;elbow=vertical;html=1;labelBackgroundColor=#ffffff;endArrow=classic;endFill=1;endSize=6;jettySize=auto;orthogonalLoop=1;strokeWidth=4;fontSize=14;exitX=0.545;exitY=1.02;exitDx=0;exitDy=0;entryX=0.5;entryY=0;entryDx=0;entryDy=0;fillColor=#ffe6cc;strokeColor=#d79b00;exitPerimeter=0;" edge="1" parent="1">
          <mxGeometry width="60" height="60" relative="1" as="geometry">
            <mxPoint x="584.0999999999999" y="722" as="sourcePoint" />
            <mxPoint x="714.75" y="786" as="targetPoint" />
            <Array as="points">
              <mxPoint x="651" y="746" />
              <mxPoint x="777.5" y="744" />
            </Array>
          </mxGeometry>
        </mxCell>
        <mxCell id="uOsbefwq3MWyIZOblxYZ-65" value="" style="edgeStyle=elbowEdgeStyle;rounded=0;elbow=vertical;html=1;labelBackgroundColor=#ffffff;endArrow=classic;endFill=1;endSize=6;jettySize=auto;orthogonalLoop=1;strokeWidth=4;fontSize=14;fillColor=#ffe6cc;strokeColor=#d79b00;entryX=0.5;entryY=0;entryDx=0;entryDy=0;" edge="1" parent="1" target="uOsbefwq3MWyIZOblxYZ-49">
          <mxGeometry width="60" height="60" relative="1" as="geometry">
            <mxPoint x="584" y="721" as="sourcePoint" />
            <mxPoint x="584" y="785" as="targetPoint" />
            <Array as="points">
              <mxPoint x="584" y="765" />
            </Array>
          </mxGeometry>
        </mxCell>
      </root>
    </mxGraphModel>
  </diagram>
</mxfile>
